<svg id="Layer_1" data-name="Layer 1" xmlns="http://www.w3.org/2000/svg" viewBox="0 0 100 100"><defs><style>.cls-1{fill:#443d8a;}.cls-2{fill:#e5df0a;}</style></defs><path d="M48.33,58.28a.25.25,0,0,1-.12-.1c-.07-.15.12-.35.21-.44.89-.88,1.6-1.87,2.43-2.8a16.79,16.79,0,0,1,2.93-3,23.59,23.59,0,0,1,3.48-2.28,25.38,25.38,0,0,0,3.43-2.41c2.19-1.9,4.1-3.83,4.1-3.83a3.2,3.2,0,0,1,.71.66c.29.44-.09,1.13-.26,1.4-1.29,2-2.7,2.62-4.61,4.81A4,4,0,0,0,59.28,52a2.84,2.84,0,0,0-.05,2,1.83,1.83,0,0,0,.78,1c.84.41,1.94-.36,2.7-.85,4.5-3,6.86-3,7.19-5a3.27,3.27,0,0,0-.06-1.21c-.07-.26-.33-1.08-2.58-3-.63-.54-1.05-.86-1.13-1.43s.09-1,.4-1.09.66.24,1.06.63a22.85,22.85,0,0,1,3.15,3.38,3.91,3.91,0,0,1,.84,1.89,5.51,5.51,0,0,1,0,1.57,4.3,4.3,0,0,1-1.46,2,25.19,25.19,0,0,0-2.22,1.46c0,.16,1.56-.63,2-.92,1.16-.69,1.84-1.45,3.54-3.86a20.2,20.2,0,0,1,2.86-3.27,5.58,5.58,0,0,1,2.19-1.43c.82-.27,1.83-.35,1.91-.11s-.28.36-.84.8a28.3,28.3,0,0,0-2.19,2,13.88,13.88,0,0,0-1.69,2c-.71,1-.56,1.2-1.29,2.3a10.85,10.85,0,0,1-1.13,1.56,13.77,13.77,0,0,1-1.58,1.33,13.38,13.38,0,0,1-1.81,1.27c-.35.25-1.14.61-1,.8s1.38-.45,3.43-1.72c1.14-.71,2.2-1.52,2.8-1.89a14.06,14.06,0,0,1,2.25-1.25,4.38,4.38,0,0,1,1.85-.4,4.21,4.21,0,0,1,1.45.39s.42.26.4.47c0,.41-1.11.44-2.41.91a10.39,10.39,0,0,0-2.28,1.43c-1.07.69-1.31.92-2.09,1.37a23,23,0,0,0-2,1.31,12.11,12.11,0,0,1-1.24.84,4.87,4.87,0,0,0-.78.58c-.08.25,1.23-.12,2.08-.3l2.36-.33a5.78,5.78,0,0,1,1.92.13c.7.21.81.35.94.52s.19.3.18.45-.51.15-1.43.13a20.1,20.1,0,0,0-4,.46c-.81.12.8-.13-3.65.51-1.13.16-2.25.46-3.36.71-1.36.3-2.77.48-4.1.9-2,.63-3.82,1.72-5.78,2.45a5.13,5.13,0,0,1-1.5.47c-.49,0-.46-.41-.67-.84a11.17,11.17,0,0,0-1.88-2.45A13.78,13.78,0,0,0,49.73,59a6.22,6.22,0,0,0-.79-.51C48.82,58.46,48.51,58.38,48.33,58.28Z"/><path class="cls-1" d="M64.21,29.2a4.88,4.88,0,0,1,1.94-2,5.18,5.18,0,0,1,2.16-.6,3.69,3.69,0,0,1,2.62,1.58,3.83,3.83,0,0,1,.84,1.94,4,4,0,0,1-.55,2.31,8.82,8.82,0,0,1-3.58,3.22,19.58,19.58,0,0,0-2.46,2.15c-.41.37-1.18,1.5-1.27,1.51A8.52,8.52,0,0,0,62,36.86a34.42,34.42,0,0,1-3.48-2.7,5.43,5.43,0,0,1-1.94-3,4.25,4.25,0,0,1,.93-3.35,3.72,3.72,0,0,1,2.1-1.2,3.87,3.87,0,0,1,2.49.47,7.48,7.48,0,0,1,1.64,1.46A3,3,0,0,1,64.21,29.2Z"/><path class="cls-2" d="M.76,65.83c2.48-14.64,8.65-24.9,18.66-35.51C26.32,23,36.17,16.26,45.23,11.68c11-5.57,23.22-6.93,36.07-6.74,11.24.16,19.86,9.56,17.11,17.86-1.19,3.61-.86,4.91-.17,5.87,3.24,4.58-.24,22.51-5.13,30.94C85.18,73.3,72.35,83.39,55.47,90.08c-14.71,5.82-31.62,8-44.52-1.4-6-4.37-9-9.31-10.17-15.93A22.62,22.62,0,0,1,.76,65.83ZM96,25.54C98.14,19,92.35,9.08,83.45,8.42,73.69,7.7,64.42,9,55.92,13c-12.17,5.63-22,13.28-29.13,22.55-8.92,11.62-15.15,24-13.95,38.07.83,9.69,9.6,17.43,22.59,17.52,10.53.07,19-3.88,26.58-8.88C74.94,73.69,82.76,62,89.2,50.58c.73-1.3,4.26-7.56,4.61-13.06-6.38,5.15-13.13,10.69-17.19,12.15.69-.73,1.2-1.81,1.86-2.2a44.35,44.35,0,0,0,5.49-4c4.94-3.79,9.38-7.11,9.49-12.58a9,9,0,0,0-3.87-7.18c-3-2.27-10.53-4.46-15.46-4.27A30.29,30.29,0,0,0,59,24.07c-12.8,8.22-23.2,24.73-25.1,31.23a17.31,17.31,0,0,0-.18,9.93c1.62,5,6.7,8.52,11.43,5.81-.65-.38-1.23-.59-1.72-.84-2.62-1.37-2.13-3.47-.65-5.36a7.8,7.8,0,0,1,7.15-2.41c3,.54,3.33,2.53,3.19,4.64-.24,3.32-4,7.68-9,8.27-9.57,1.13-13.67-2.75-15.24-11-.95-5,.31-11,2.28-16C36.21,35.54,46.45,26,61.67,19.51c11.17-4.76,21.8-4.32,31,2.36A30.89,30.89,0,0,1,96,25.54Z"/></svg>